<?xml version="1.0" encoding="UTF-8"?>
<!DOCTYPE svg PUBLIC "-//W3C//DTD SVG 1.1//EN" "http://www.w3.org/Graphics/SVG/1.1/DTD/svg11.dtd">
<svg version="1.2" width="297mm" height="210mm" viewBox="0 0 29700 21000" preserveAspectRatio="xMidYMid" fill-rule="evenodd" stroke-width="28.222" stroke-linejoin="round" xmlns="http://www.w3.org/2000/svg" xmlns:ooo="http://xml.openoffice.org/svg/export" xmlns:xlink="http://www.w3.org/1999/xlink" xmlns:presentation="http://sun.com/xmlns/staroffice/presentation" xmlns:smil="http://www.w3.org/2001/SMIL20/" xmlns:anim="urn:oasis:names:tc:opendocument:xmlns:animation:1.0" xmlns:svg="urn:oasis:names:tc:opendocument:xmlns:svg-compatible:1.0" xml:space="preserve">
 <defs class="ClipPathGroup">
  <clipPath id="presentation_clip_path" clipPathUnits="userSpaceOnUse">
   <rect x="0" y="0" width="29700" height="21000"/>
  </clipPath>
  <clipPath id="presentation_clip_path_shrink" clipPathUnits="userSpaceOnUse">
   <rect x="29" y="21" width="29641" height="20958"/>
  </clipPath>
 </defs>
 <defs class="TextShapeIndex">
  <g ooo:slide="id1" ooo:id-list="id3 id4 id5 id6 id7 id8"/>
 </defs>
 <defs class="EmbeddedBulletChars">
  <g id="bullet-char-template-57356" transform="scale(0.00048828125,-0.00048828125)">
   <path d="M 580,1141 L 1163,571 580,0 -4,571 580,1141 Z"/>
  </g>
  <g id="bullet-char-template-57354" transform="scale(0.00048828125,-0.00048828125)">
   <path d="M 8,1128 L 1137,1128 1137,0 8,0 8,1128 Z"/>
  </g>
  <g id="bullet-char-template-10146" transform="scale(0.00048828125,-0.00048828125)">
   <path d="M 174,0 L 602,739 174,1481 1456,739 174,0 Z M 1358,739 L 309,1346 659,739 1358,739 Z"/>
  </g>
  <g id="bullet-char-template-10132" transform="scale(0.00048828125,-0.00048828125)">
   <path d="M 2015,739 L 1276,0 717,0 1260,543 174,543 174,936 1260,936 717,1481 1274,1481 2015,739 Z"/>
  </g>
  <g id="bullet-char-template-10007" transform="scale(0.00048828125,-0.00048828125)">
   <path d="M 0,-2 C -7,14 -16,27 -25,37 L 356,567 C 262,823 215,952 215,954 215,979 228,992 255,992 264,992 276,990 289,987 310,991 331,999 354,1012 L 381,999 492,748 772,1049 836,1024 860,1049 C 881,1039 901,1025 922,1006 886,937 835,863 770,784 769,783 710,716 594,584 L 774,223 C 774,196 753,168 711,139 L 727,119 C 717,90 699,76 672,76 641,76 570,178 457,381 L 164,-76 C 142,-110 111,-127 72,-127 30,-127 9,-110 8,-76 1,-67 -2,-52 -2,-32 -2,-23 -1,-13 0,-2 Z"/>
  </g>
  <g id="bullet-char-template-10004" transform="scale(0.00048828125,-0.00048828125)">
   <path d="M 285,-33 C 182,-33 111,30 74,156 52,228 41,333 41,471 41,549 55,616 82,672 116,743 169,778 240,778 293,778 328,747 346,684 L 369,508 C 377,444 397,411 428,410 L 1163,1116 C 1174,1127 1196,1133 1229,1133 1271,1133 1292,1118 1292,1087 L 1292,965 C 1292,929 1282,901 1262,881 L 442,47 C 390,-6 338,-33 285,-33 Z"/>
  </g>
  <g id="bullet-char-template-9679" transform="scale(0.00048828125,-0.00048828125)">
   <path d="M 813,0 C 632,0 489,54 383,161 276,268 223,411 223,592 223,773 276,916 383,1023 489,1130 632,1184 813,1184 992,1184 1136,1130 1245,1023 1353,916 1407,772 1407,592 1407,412 1353,268 1245,161 1136,54 992,0 813,0 Z"/>
  </g>
  <g id="bullet-char-template-8226" transform="scale(0.00048828125,-0.00048828125)">
   <path d="M 346,457 C 273,457 209,483 155,535 101,586 74,649 74,723 74,796 101,859 155,911 209,963 273,989 346,989 419,989 480,963 531,910 582,859 608,796 608,723 608,648 583,586 532,535 482,483 420,457 346,457 Z"/>
  </g>
  <g id="bullet-char-template-8211" transform="scale(0.00048828125,-0.00048828125)">
   <path d="M -4,459 L 1135,459 1135,606 -4,606 -4,459 Z"/>
  </g>
  <g id="bullet-char-template-61548" transform="scale(0.00048828125,-0.00048828125)">
   <path d="M 173,740 C 173,903 231,1043 346,1159 462,1274 601,1332 765,1332 928,1332 1067,1274 1183,1159 1299,1043 1357,903 1357,740 1357,577 1299,437 1183,322 1067,206 928,148 765,148 601,148 462,206 346,322 231,437 173,577 173,740 Z"/>
  </g>
 </defs>
 <g>
  <g id="id2" class="Master_Slide">
   <g id="bg-id2" class="Background"/>
   <g id="bo-id2" class="BackgroundObjects"/>
  </g>
 </g>
 <g class="SlideGroup">
  <g>
   <g id="container-id1">
    <g id="id1" class="Slide" clip-path="url(#presentation_clip_path)">
     <g class="Page">
      <g class="com.sun.star.drawing.CustomShape">
       <g id="id3">
        <rect class="BoundingBox" stroke="none" fill="none" x="14249" y="6999" width="3503" height="6253"/>
        <path fill="rgb(51,51,51)" stroke="none" d="M 16000,13250 L 14250,13250 14250,7000 17750,7000 17750,13250 16000,13250 Z"/>
        <path fill="none" stroke="rgb(51,51,51)" d="M 16000,13250 L 14250,13250 14250,7000 17750,7000 17750,13250 16000,13250 Z"/>
       </g>
      </g>
      <g class="com.sun.star.drawing.CustomShape">
       <g id="id4">
        <rect class="BoundingBox" stroke="none" fill="none" x="14749" y="7749" width="2504" height="754"/>
        <path fill="rgb(255,151,47)" stroke="none" d="M 14875,7750 L 14875,7750 C 14853,7750 14832,7756 14813,7767 14794,7778 14778,7794 14767,7813 14756,7832 14750,7853 14750,7875 L 14750,8375 14750,8376 C 14750,8398 14756,8419 14767,8438 14778,8457 14794,8473 14813,8484 14832,8495 14853,8501 14875,8501 L 17125,8501 17126,8501 C 17148,8501 17169,8495 17188,8484 17207,8473 17223,8457 17234,8438 17245,8419 17251,8398 17251,8376 L 17251,7875 17251,7875 17251,7875 C 17251,7853 17245,7832 17234,7813 17223,7794 17207,7778 17188,7767 17169,7756 17148,7750 17126,7750 L 14875,7750 Z"/>
        <path fill="none" stroke="rgb(255,151,47)" d="M 14875,7750 L 14875,7750 C 14853,7750 14832,7756 14813,7767 14794,7778 14778,7794 14767,7813 14756,7832 14750,7853 14750,7875 L 14750,8375 14750,8376 C 14750,8398 14756,8419 14767,8438 14778,8457 14794,8473 14813,8484 14832,8495 14853,8501 14875,8501 L 17125,8501 17126,8501 C 17148,8501 17169,8495 17188,8484 17207,8473 17223,8457 17234,8438 17245,8419 17251,8398 17251,8376 L 17251,7875 17251,7875 17251,7875 C 17251,7853 17245,7832 17234,7813 17223,7794 17207,7778 17188,7767 17169,7756 17148,7750 17126,7750 L 14875,7750 Z"/>
       </g>
      </g>
      <g class="com.sun.star.drawing.CustomShape">
       <g id="id5">
        <rect class="BoundingBox" stroke="none" fill="none" x="14750" y="8750" width="2504" height="754"/>
        <path fill="rgb(255,151,47)" stroke="none" d="M 14876,8751 L 14876,8751 C 14854,8751 14833,8757 14814,8768 14795,8779 14779,8795 14768,8814 14757,8833 14751,8854 14751,8876 L 14751,9376 14751,9377 C 14751,9399 14757,9420 14768,9439 14779,9458 14795,9474 14814,9485 14833,9496 14854,9502 14876,9502 L 17126,9502 17127,9502 C 17149,9502 17170,9496 17189,9485 17208,9474 17224,9458 17235,9439 17246,9420 17252,9399 17252,9377 L 17252,8876 17252,8876 17252,8876 C 17252,8854 17246,8833 17235,8814 17224,8795 17208,8779 17189,8768 17170,8757 17149,8751 17127,8751 L 14876,8751 Z"/>
        <path fill="none" stroke="rgb(255,151,47)" d="M 14876,8751 L 14876,8751 C 14854,8751 14833,8757 14814,8768 14795,8779 14779,8795 14768,8814 14757,8833 14751,8854 14751,8876 L 14751,9376 14751,9377 C 14751,9399 14757,9420 14768,9439 14779,9458 14795,9474 14814,9485 14833,9496 14854,9502 14876,9502 L 17126,9502 17127,9502 C 17149,9502 17170,9496 17189,9485 17208,9474 17224,9458 17235,9439 17246,9420 17252,9399 17252,9377 L 17252,8876 17252,8876 17252,8876 C 17252,8854 17246,8833 17235,8814 17224,8795 17208,8779 17189,8768 17170,8757 17149,8751 17127,8751 L 14876,8751 Z"/>
       </g>
      </g>
      <g class="com.sun.star.drawing.CustomShape">
       <g id="id6">
        <rect class="BoundingBox" stroke="none" fill="none" x="14751" y="9751" width="2504" height="754"/>
        <path fill="rgb(255,151,47)" stroke="none" d="M 14877,9752 L 14877,9752 C 14855,9752 14834,9758 14815,9769 14796,9780 14780,9796 14769,9815 14758,9834 14752,9855 14752,9877 L 14752,10377 14752,10378 C 14752,10400 14758,10421 14769,10440 14780,10459 14796,10475 14815,10486 14834,10497 14855,10503 14877,10503 L 17127,10503 17128,10503 C 17150,10503 17171,10497 17190,10486 17209,10475 17225,10459 17236,10440 17247,10421 17253,10400 17253,10378 L 17253,9877 17253,9877 17253,9877 C 17253,9855 17247,9834 17236,9815 17225,9796 17209,9780 17190,9769 17171,9758 17150,9752 17128,9752 L 14877,9752 Z"/>
        <path fill="none" stroke="rgb(255,151,47)" d="M 14877,9752 L 14877,9752 C 14855,9752 14834,9758 14815,9769 14796,9780 14780,9796 14769,9815 14758,9834 14752,9855 14752,9877 L 14752,10377 14752,10378 C 14752,10400 14758,10421 14769,10440 14780,10459 14796,10475 14815,10486 14834,10497 14855,10503 14877,10503 L 17127,10503 17128,10503 C 17150,10503 17171,10497 17190,10486 17209,10475 17225,10459 17236,10440 17247,10421 17253,10400 17253,10378 L 17253,9877 17253,9877 17253,9877 C 17253,9855 17247,9834 17236,9815 17225,9796 17209,9780 17190,9769 17171,9758 17150,9752 17128,9752 L 14877,9752 Z"/>
       </g>
      </g>
      <g class="com.sun.star.drawing.CustomShape">
       <g id="id7">
        <rect class="BoundingBox" stroke="none" fill="none" x="16749" y="10999" width="504" height="504"/>
        <path fill="rgb(129,212,26)" stroke="none" d="M 17251,11251 C 17251,11294 17239,11338 17217,11376 17195,11414 17164,11445 17126,11467 17088,11489 17044,11501 17001,11501 16957,11501 16913,11489 16875,11467 16837,11445 16806,11414 16784,11376 16762,11338 16750,11294 16750,11251 16750,11207 16762,11163 16784,11125 16806,11087 16837,11056 16875,11034 16913,11012 16957,11000 17001,11000 17044,11000 17088,11012 17126,11034 17164,11056 17195,11087 17217,11125 17239,11163 17251,11207 17251,11251 L 17251,11251 Z"/>
        <path fill="none" stroke="rgb(129,212,26)" d="M 17251,11251 C 17251,11294 17239,11338 17217,11376 17195,11414 17164,11445 17126,11467 17088,11489 17044,11501 17001,11501 16957,11501 16913,11489 16875,11467 16837,11445 16806,11414 16784,11376 16762,11338 16750,11294 16750,11251 16750,11207 16762,11163 16784,11125 16806,11087 16837,11056 16875,11034 16913,11012 16957,11000 17001,11000 17044,11000 17088,11012 17126,11034 17164,11056 17195,11087 17217,11125 17239,11163 17251,11207 17251,11251 Z"/>
       </g>
      </g>
      <g class="com.sun.star.drawing.CustomShape">
       <g id="id8">
        <rect class="BoundingBox" stroke="none" fill="none" x="16750" y="11700" width="504" height="504"/>
        <path fill="rgb(255,64,0)" stroke="none" d="M 17252,11951 C 17252,11995 17240,12039 17218,12077 17196,12115 17165,12146 17127,12168 17089,12190 17045,12202 17002,12202 16958,12202 16914,12190 16876,12168 16838,12146 16807,12115 16785,12077 16763,12039 16751,11995 16751,11951 16751,11908 16763,11864 16785,11826 16807,11788 16838,11757 16876,11735 16914,11713 16958,11701 17002,11701 17045,11701 17089,11713 17127,11735 17165,11757 17196,11788 17218,11826 17240,11864 17252,11908 17252,11951 L 17252,11951 Z"/>
        <path fill="none" stroke="rgb(255,64,0)" d="M 17252,11951 C 17252,11995 17240,12039 17218,12077 17196,12115 17165,12146 17127,12168 17089,12190 17045,12202 17002,12202 16958,12202 16914,12190 16876,12168 16838,12146 16807,12115 16785,12077 16763,12039 16751,11995 16751,11951 16751,11908 16763,11864 16785,11826 16807,11788 16838,11757 16876,11735 16914,11713 16958,11701 17002,11701 17045,11701 17089,11713 17127,11735 17165,11757 17196,11788 17218,11826 17240,11864 17252,11908 17252,11951 Z"/>
       </g>
      </g>
     </g>
    </g>
   </g>
  </g>
 </g>
</svg>